# This file uses centimeters as units for non-parametric coordinates.

mtllib lets.mtl
g default
v -12.700000 14.852086 -12.700000
v -12.700000 14.852086 12.488999
v -12.700000 17.419685 -10.105717
v -12.700001 17.419685 9.894642
v -12.700000 20.419685 -10.105717
v -12.700001 20.419685 9.894642
v -12.700000 30.993637 -12.700000
v -12.700000 30.993637 12.488999
v -10.504848 21.407557 -12.700000
v -10.504848 24.867107 -12.700000
v 10.504848 21.407557 -12.700000
v 10.504848 24.867107 -12.700000
v 12.700000 14.852086 -12.700000
v 12.700000 14.852086 12.488999
v 12.700000 17.419685 -10.105717
v 12.699999 17.419685 9.894617
v 12.700000 20.419685 -10.105717
v 12.699999 20.419685 9.894617
v 12.700000 30.993637 -12.700000
v 12.700000 30.993637 12.488999
v -10.504848 21.407557 -5.890717
v 10.504848 21.407557 -5.890717
v -10.504848 24.867107 -5.890717
v 10.504848 24.867107 -5.890717
vt -2.250585 -0.539827
vt 0.289415 -0.539827
vt -2.250585 1.074328
vt 0.289415 1.074328
vt -2.540000 0.612653
vt -0.219515 0.000000
vt 0.000000 0.612653
vt -0.219515 -0.345955
vt 0.000000 -1.001502
vt -2.320485 -0.345955
vt -2.540000 -1.001502
vt -2.320485 0.000000
vt 2.518900 -0.539827
vt 2.259464 -0.283067
vt 0.000000 -0.539827
vt 0.259428 -0.283067
vt 0.259428 0.016933
vt 2.259464 0.016933
vt 2.518900 1.074328
vt 0.000000 1.074328
vt 0.000000 2.540000
vt -2.518900 2.540000
vt 0.000000 0.000000
vt -2.518900 0.000000
vt -0.259428 -0.283067
vt 0.000000 -0.539827
vt -0.259428 0.016933
vt 0.000000 1.074328
vt -2.259462 0.016933
vt -2.518900 1.074328
vt -2.518900 -0.539827
vt -2.259462 -0.283067
vt 0.000000 -0.289415
vt 2.518900 -0.289415
vt 0.000000 2.250585
vt 2.518900 2.250585
vt 0.000000 0.258500
vt -2.540000 0.258500
vt 0.000000 -0.041500
vt -2.540000 -0.041500
vt 0.000000 -0.141200
vt 2.540000 -0.141200
vt 0.000000 0.158800
vt 2.540000 0.158800
vt 2.180036 0.000000
vt 2.180033 2.540000
vt 0.180000 0.000000
vt 0.180000 2.540000
vt 0.180000 0.000000
vt 2.180036 0.000000
vt 0.180003 2.540000
vt 2.180036 2.540000
vt -2.320485 -0.345955
vt -0.219515 -0.345955
vt -0.219515 0.000000
vt -2.320485 0.000000
vn 0.000000 0.000000 1.000000
vn 0.000000 0.000000 1.000000
vn 0.000000 0.000000 1.000000
vn 0.000000 0.000000 1.000000
vn 0.000000 0.000000 1.000000
vn 0.000000 0.000000 1.000000
vn 0.000000 0.000000 -1.000000
vn 0.000000 0.000000 -1.000000
vn 0.000000 0.000000 -1.000000
vn 0.000000 0.000000 -1.000000
vn 0.000000 0.000000 -1.000000
vn 0.000000 0.000000 -1.000000
vn 0.000002 0.000000 -1.000000
vn 0.000002 0.000000 -1.000000
vn 0.000002 0.000000 -1.000000
vn 0.000000 0.000000 -1.000000
vn 0.000000 0.000000 -1.000000
vn 0.000000 0.000000 -1.000000
vn 0.000000 0.000000 -1.000000
vn 0.000000 0.000000 -1.000000
vn 0.000000 0.000000 -1.000000
vn -0.000002 0.000000 -1.000000
vn -0.000002 0.000000 -1.000000
vn -0.000002 0.000000 -1.000000
vn 0.000000 0.000000 -1.000000
vn 0.000000 0.000000 -1.000000
vn 0.000000 0.000000 -1.000000
vn 0.000000 0.000000 -1.000000
vn 0.000000 0.000000 -1.000000
vn 0.000000 0.000000 -1.000000
vn -1.000000 0.000000 0.000000
vn -1.000000 0.000000 0.000000
vn -1.000000 0.000000 0.000000
vn -1.000000 0.000000 -0.000000
vn -1.000000 0.000000 -0.000000
vn -1.000000 0.000000 -0.000000
vn -1.000000 0.000000 0.000000
vn -1.000000 0.000000 0.000000
vn -1.000000 0.000000 0.000000
vn -1.000000 0.000000 0.000000
vn -1.000000 0.000000 0.000000
vn -1.000000 0.000000 0.000000
vn -1.000000 0.000000 0.000000
vn -1.000000 0.000000 0.000000
vn -1.000000 0.000000 0.000000
vn -1.000000 0.000000 0.000000
vn -1.000000 0.000000 0.000000
vn -1.000000 0.000000 0.000000
vn -1.000000 -0.000000 -0.000000
vn -1.000000 -0.000000 -0.000000
vn -1.000000 -0.000000 -0.000000
vn -1.000000 0.000000 0.000000
vn -1.000000 0.000000 0.000000
vn -1.000000 0.000000 0.000000
vn 0.000000 -1.000000 0.000000
vn 0.000000 -1.000000 0.000000
vn 0.000000 -1.000000 0.000000
vn 0.000000 -1.000000 0.000000
vn 0.000000 -1.000000 0.000000
vn 0.000000 -1.000000 0.000000
vn 1.000000 0.000000 0.000000
vn 1.000000 0.000000 0.000000
vn 1.000000 0.000000 0.000000
vn 1.000000 0.000000 0.000000
vn 1.000000 0.000000 0.000000
vn 1.000000 0.000000 0.000000
vn 1.000000 0.000000 0.000000
vn 1.000000 0.000000 0.000000
vn 1.000000 0.000000 0.000000
vn 1.000000 -0.000000 0.000000
vn 1.000000 -0.000000 0.000000
vn 1.000000 -0.000000 0.000000
vn 1.000000 0.000000 -0.000000
vn 1.000000 0.000000 -0.000000
vn 1.000000 0.000000 -0.000000
vn 1.000000 -0.000000 0.000000
vn 1.000000 -0.000000 0.000000
vn 1.000000 -0.000000 0.000000
vn 1.000000 0.000002 0.000000
vn 1.000000 0.000002 0.000000
vn 1.000000 0.000002 0.000000
vn 1.000000 0.000000 -0.000000
vn 1.000000 0.000000 -0.000000
vn 1.000000 0.000000 -0.000000
vn 0.000000 1.000000 0.000000
vn 0.000000 1.000000 0.000000
vn 0.000000 1.000000 0.000000
vn 0.000000 1.000000 0.000000
vn 0.000000 1.000000 0.000000
vn 0.000000 1.000000 0.000000
vn -0.000001 0.000000 -1.000000
vn -0.000001 0.000000 -1.000000
vn -0.000001 0.000000 -1.000000
vn -0.000001 0.000000 -1.000000
vn -0.000001 0.000000 -1.000000
vn -0.000001 0.000000 -1.000000
vn 0.000000 0.000000 1.000000
vn 0.000000 0.000000 1.000000
vn 0.000000 0.000000 1.000000
vn 0.000000 0.000000 1.000000
vn 0.000000 0.000000 1.000000
vn 0.000000 0.000000 1.000000
vn 0.000000 1.000000 -0.000000
vn 0.000000 1.000000 -0.000000
vn 0.000000 1.000000 -0.000000
vn 0.000000 1.000000 0.000000
vn 0.000000 1.000000 0.000000
vn 0.000000 1.000000 0.000000
vn 0.000000 -1.000000 0.000000
vn 0.000000 -1.000000 0.000000
vn 0.000000 -1.000000 0.000000
vn 0.000000 -1.000000 0.000000
vn 0.000000 -1.000000 0.000000
vn 0.000000 -1.000000 0.000000
vn 0.000000 0.000000 -1.000000
vn 0.000000 0.000000 -1.000000
vn 0.000000 0.000000 -1.000000
vn 0.000000 0.000000 -1.000000
vn 0.000000 1.000000 0.000000
vn 0.000000 1.000000 0.000000
vn 0.000000 1.000000 0.000000
vn 0.000000 1.000000 0.000000
vn 1.000000 0.000000 0.000000
vn 1.000000 0.000000 0.000000
vn 1.000000 0.000000 0.000000
vn 1.000000 0.000000 0.000000
vn 0.000000 -1.000000 0.000000
vn 0.000000 -1.000000 0.000000
vn 0.000000 -1.000000 0.000000
vn 0.000000 -1.000000 0.000000
vn -1.000000 0.000000 0.000000
vn -1.000000 0.000000 0.000000
vn -1.000000 0.000000 0.000000
vn -1.000000 0.000000 0.000000
s off
g Ver1:Solid1
usemtl Ver1:set1
f 2/1/1 14/2/2 8/3/3
f 8/3/4 14/2/5 20/4/6
f 19/5/7 10/6/8 7/7/9
f 7/7/10 10/6/11 9/8/12
f 7/7/13 9/8/14 1/9/15
f 1/9/16 9/8/17 11/10/18
f 1/9/19 11/10/20 13/11/21
f 13/11/22 11/10/23 19/5/24
f 19/5/25 11/10/26 12/12/27
f 19/5/28 12/12/29 10/6/30
f 2/13/31 4/14/32 1/15/33
f 1/15/34 4/14/35 3/16/36
f 1/15/37 3/16/38 5/17/39
f 4/14/40 2/13/41 6/18/42
f 6/18/43 2/13/44 8/19/45
f 6/18/46 8/19/47 7/20/48
f 6/18/49 7/20/50 5/17/51
f 5/17/52 7/20/53 1/15/54
f 13/21/55 14/22/56 1/23/57
f 1/23/58 14/22/59 2/24/60
f 15/25/61 13/26/62 17/27/63
f 17/27/64 13/26/65 19/28/66
f 17/27/67 19/28/68 18/29/69
f 18/29/70 19/28/71 20/30/72
f 18/29/73 20/30/74 14/31/75
f 15/25/76 16/32/77 13/26/78
f 13/26/79 16/32/80 14/31/81
f 14/31/82 16/32/83 18/29/84
f 7/33/85 8/34/86 19/35/87
f 19/35/88 8/34/89 20/36/90
f 6/37/91 18/38/92 4/39/93
f 4/39/94 18/38/95 16/40/96
f 3/41/97 15/42/98 5/43/99
f 5/43/100 15/42/101 17/44/102
f 4/45/103 16/46/104 3/47/105
f 3/47/106 16/46/107 15/48/108
f 6/49/109 5/50/110 18/51/111
f 18/51/112 5/50/113 17/52/114
f 22/53/115 21/54/116 23/55/117 24/56/118
f 11/10/119 9/8/120 21/54/121 22/53/122
f 9/8/123 10/6/124 23/55/125 21/54/126
f 10/6/127 12/12/128 24/56/129 23/55/130
f 12/12/131 11/10/132 22/53/133 24/56/134
